<?xml version="1.0" encoding="utf-8"?>
<!-- Generator: Adobe Illustrator 21.0.2, SVG Export Plug-In . SVG Version: 6.00 Build 0)  -->
<svg version="1.1" id="Layer_1" xmlns="http://www.w3.org/2000/svg" xmlns:xlink="http://www.w3.org/1999/xlink" x="0px" y="0px"
	 viewBox="0 0 388.8 266.3" style="enable-background:new 0 0 388.8 266.3;" xml:space="preserve">
<g>
	<path d="M64.4,178.5c-5-6.9-3-12.7,2.6-17.8c-7.3-8.7-7.3-11.3-0.5-20.6c-6.8-9.5-6.7-11.8,0.2-20.5c-7-9-7-11.7-0.7-19.6
		c-1.6-4.2-2.9-8.1-4.7-11.7c-0.6-1.2-2.3-2-3.7-2.4c-11.5-3.9-23-7.5-34.4-11.8c-4.3-1.6-8.3-4.3-12.1-7
		C-3.6,56.5-3.3,42.4,11.7,32c12.4-8.6,26.4-13.2,40.8-16.9C100.2,3.1,148.8-0.1,197.7,0c42.4,0.1,84.6,2.9,126,12.2
		c14.7,3.3,29,8.6,43.1,13.9c5.9,2.2,11.3,6.5,15.9,10.9c8.1,7.8,8.1,17.8-0.1,25.5c-4.7,4.5-10.4,8.6-16.4,11.1
		C354.8,78.5,342.8,82,331,86c-1.1,0.4-2.2,0.6-2.3,0.7c-2.2,4.7-4,8.7-5.8,12.6c1.3,3.1,4,6.7,4.1,10.2c0.1,3.4-2.6,6.9-4.2,10.9
		c6.3,9.4,6.3,11.2-0.1,19.1c1.6,3.8,4.3,7.4,4.3,10.9c0,3.6-2.7,7.1-4.5,11.1c5.1,4.4,6.7,10.3,2.4,16.4
		c12.6,4.1,25.1,7.7,37.1,12.5c7,2.8,13.7,7,19.5,11.9c9.9,8.3,9.7,19.2,0.3,28.1c-7.5,7.2-16.8,11.3-26.4,14.8
		c-23.8,8.7-48.5,12.9-73.5,16c-43.6,5.4-87.4,6.5-131.2,3.9c-37.8-2.2-75.4-6-111.6-18.1c-9.5-3.2-18.5-8.2-27.4-13
		c-3.2-1.7-5.9-4.9-8.2-7.9c-4.7-6.3-4.8-13.9,0.3-19.8c3.7-4.3,8.4-8.1,13.3-11.1c12.7-7.6,26.9-11.4,41.1-15
		C60.1,179.6,62,179.1,64.4,178.5z M194,89.8c16.1-0.6,32.3-0.8,48.4-1.8c31.6-1.9,63-5.6,93.6-14c12.4-3.4,24.7-7.1,35.3-14.6
		c9.3-6.5,9.6-13,0-19c-7.4-4.6-15.5-8.4-23.8-11.2c-36.2-12-73.7-16-111.5-18c-47.5-2.6-94.9-1.2-142,5.9
		c-22.4,3.4-44.6,7.7-65.5,17c-5.4,2.4-10.5,5.8-15,9.6c-4.5,3.7-4.4,8.1-0.1,12.1C17,59,21,61.8,25.3,64
		c15.5,7.7,32.1,11.8,48.9,15.1C113.8,86.9,153.8,89.4,194,89.8z M322.3,202.1c7.3,8.7,6.3,15.6-3.8,22c-2.9,1.8-6.1,3.7-9.4,4.6
		c-10.7,3-21.4,6.5-32.4,8.2c-54.7,8.5-109.5,8.5-164.2,0.1c-14.5-2.2-28.9-5-41.8-12.7c-10.6-6.3-11.7-13.4-4.3-22.3
		c-2.1-4-4.1-7.9-6.6-12.6c-10.7,3.8-21.8,7.6-32.8,11.8c-3.8,1.5-7.4,3.8-10.7,6.3c-8,6-8.2,12,0.1,17.5
		c6.7,4.4,14.2,8.2,21.8,10.9c32.3,11.4,66,16.2,100,17.9c31.6,1.6,63.3,1.8,94.9,1.1c32.7-0.7,65.1-4.8,96.9-12.8
		c14.5-3.6,29.1-7.6,41.6-16.3c9.1-6.4,9.1-12.5,0.1-18.8c-13.2-9.2-28.5-13-43.1-16.8C326.3,194.4,324.4,198.1,322.3,202.1z
		 M190.5,192.1c30.5-0.1,57.4-1.1,83.7-6.2c13-2.5,25.6-6.9,38.2-10.9c1.7-0.5,4.1-4,3.7-5.2c-1.1-2.9-3.8-3.6-7.4-2.5
		c-9.7,2.9-19.4,5.9-29.4,7.7c-39.1,6.8-78.5,8.1-118,5.8c-28.1-1.7-56.1-4-82.9-13.7c-1.5-0.5-4,1.8-6.1,2.7
		c0.9,1.5,1.5,3.9,2.8,4.5c5.6,2.6,11.2,5.2,17.1,6.8C125.6,190.2,159.8,191.6,190.5,192.1z M193,233.1c29.7-0.3,58.2-1.3,86.2-7.1
		c11.6-2.4,22.9-6.7,34.2-10.5c1.4-0.5,2.1-3.2,3-4.8c-2.2-0.9-4.9-3-6.6-2.4c-16.6,6-33.8,8.8-51.1,10.8
		c-36.2,4.2-72.4,4.8-108.7,1.9c-24.1-1.9-48-4.5-71-12.8c-1.7-0.6-4.3,1.6-6.6,2.5c0.9,1.5,1.5,3.9,2.8,4.5
		c6.9,2.9,13.8,6,20.9,7.8C128.3,231.2,161.2,232.6,193,233.1z M193.5,130.6c29.3-0.2,56.9-1.2,84.1-6.7c12-2.4,23.6-6.7,35.2-10.5
		c1.6-0.5,3.8-3.9,3.3-4.9c-1.1-2.6-3.4-4-6.9-2.6c-17.1,6.6-35.1,9.2-53.1,11.2c-33,3.7-66.2,4.3-99.3,2
		c-26.3-1.8-52.5-4.1-77.5-13.4c-3.3-1.2-5.5,0.2-6.6,2.5c-0.5,1,1.2,4.1,2.6,4.8c5.9,2.7,11.9,5.3,18.1,7
		C126.8,128.8,160.9,130.2,193.5,130.6z M191,151.1c30.3-0.1,57.1-1.1,83.5-6.2c13-2.5,25.5-7,38.2-11c1.6-0.5,3.7-4.1,3.3-5.3
		c-1.1-2.7-3.7-3.2-7.1-2.2c-11.3,3.2-22.7,6.6-34.3,8.5c-37.8,6.1-75.9,7.4-114,4.9c-27.7-1.8-55.4-4-81.9-13.6
		c-1.6-0.6-4.1,1.6-6.2,2.5c0.8,1.6,1.3,4,2.6,4.5c6.5,2.8,13.1,5.9,19.9,7.6C127.6,149.2,161,150.8,191,151.1z M194.4,212.4
		c29.4,0,58.7-1.3,87.5-7.4c10.8-2.3,21.2-6.4,31.7-10.1c1.3-0.5,1.8-3.2,2.7-4.9c-2.1-0.8-4.7-2.7-6.3-2.1
		c-21,7.6-43,10.3-65.1,12.3c-33.6,3-67.2,3-100.8,0c-21.9-2-43.8-4.5-64.5-12.3c-3.3-1.2-5.6,0-6.6,2.3c-0.5,1.1,1.4,4.4,2.9,5
		c7.2,3,14.5,6.1,22,7.9C129.4,210.6,161.8,212.3,194.4,212.4z M194.6,171.4c27.7,0,55.4-1.1,82.6-6.6c12.3-2.5,24.2-7,36.2-10.9
		c1.4-0.5,3.3-3.7,2.8-4.7c-1.1-2.3-3.2-3.9-6.5-2.6c-24.8,9.2-50.9,11.5-77,13.3c-29.8,2.1-59.6,1.8-89.4-1
		c-21.7-2-43.4-4.5-64-12.3c-3.3-1.3-5.5,0.2-6.6,2.5c-0.5,1,1.3,4.2,2.7,4.7c7.4,3,14.8,6.2,22.5,8.1
		C129.6,169.8,162,171.3,194.6,171.4z M72.2,90.6c2.6,1.5,5.1,3.7,7.9,4.4c13.1,3.6,26.2,7.9,39.6,9.8c49.5,7.3,99.3,7.4,148.8,0
		c13.6-2,26.8-6.3,40.1-9.9c2.8-0.8,5.3-3,7.9-4.6C234.9,103.3,153.9,103.2,72.2,90.6z"/>
	<path d="M184.3,23c29.1,0.1,52.5,1.3,75.2,8.1c4.9,1.5,9.8,3.6,14.1,6.3c10.2,6.4,10.5,16.8-0.2,22.5c-8.2,4.4-17.4,7.6-26.6,9.4
		c-37,7.2-74.2,7-111.1-1.3c-6.9-1.5-13.8-4.2-19.9-7.7c-11-6.2-11-16.3-0.4-23.1c10.6-6.8,22.9-9.1,35-10.8
		C163.5,24.5,176.7,23.7,184.3,23z M194.2,65.1c16-1.7,32.1-2.8,48-5.3c8.4-1.3,16.5-4.8,24.7-7.5c1.5-0.5,2.5-2.4,3.7-3.6
		c-1.3-1.2-2.3-2.9-3.8-3.6c-4.1-1.8-8.2-3.7-12.5-4.8c-36.3-9-72.8-9.1-109.4-2.4c-7.9,1.4-15.7,4.4-23.2,7.4c-5,2-4.8,4.6,0.1,7
		c4,2,8.2,3.7,12.5,4.9C153.8,62.5,173.9,63.7,194.2,65.1z"/>
</g>
</svg>
