<?xml version="1.0" encoding="utf-8"?>
<!-- Generator: Adobe Illustrator 21.0.2, SVG Export Plug-In . SVG Version: 6.00 Build 0)  -->
<svg version="1.1" id="Layer_1" xmlns="http://www.w3.org/2000/svg" xmlns:xlink="http://www.w3.org/1999/xlink" x="0px" y="0px"
	 viewBox="0 0 338.1 301.7" style="enable-background:new 0 0 338.1 301.7;" xml:space="preserve">
<g>
	<path d="M174.2,199.6c0,33.8,0,67.7,0,101.9c-3.5,0-6.5,0-10.1,0c0-33.9,0-67.8,0-102.1c-14.3-2.3-25.6-8.8-33.5-20.7
		c-5.7-8.6-8.1-18.1-7.5-28.4c1.1-21,15.1-36,40.9-43.2c0-35.5,0-71.1,0-107c3.4,0,6.5,0,10.1,0c0,35.8,0,71.5,0,107.1
		c26.4,6.6,40.9,23,41,45.7C215.2,176.3,201.1,192.5,174.2,199.6z M168.8,189.2c19.9,0.1,36-15.9,36.1-35.7
		c0-19.6-15.9-35.7-35.5-35.7c-20.2-0.1-36.3,15.8-36.3,35.9C133.2,173.2,149.2,189.1,168.8,189.2z"/>
	<path d="M286.8,107.3c0-35.8,0-71.3,0-107.1c3.3,0,6.4,0,10,0c0,35.6,0,71.3,0,107.2c14.4,2.4,25.8,8.9,33.6,20.9
		c6.1,9.3,8.7,19.5,7.2,30.4c-3.2,24-23.2,41.4-46.6,40.8c-22.9-0.6-42.5-18.4-44.9-40.6C243.7,136.1,257.6,112.5,286.8,107.3z
		 M291.6,189.2c19.8,0.2,36.1-15.8,36.2-35.6c0.1-19.5-15.9-35.8-35.4-35.9c-20.1-0.1-36.1,15.4-36.4,35.3
		C255.8,172.8,271.7,189,291.6,189.2z"/>
	<path d="M41.1,199.4C14.5,194.2-1.8,174,0.2,149.6c1.9-23.1,20.8-41.1,44.4-42.2c23.3-1,43.6,15.9,47.2,39.5
		c3,19.8-7.8,46.4-40.5,52.7c0,33.8,0,67.7,0,101.9c-3.5,0-6.6,0-10.1,0C41.1,267.5,41.1,233.6,41.1,199.4z M45.9,189.2
		c19.6,0.1,35.9-15.7,36.1-35.2c0.2-20.1-15.8-36.2-35.9-36.3c-19.7-0.1-35.9,16.2-35.9,35.9C10.3,173.1,26.3,189.1,45.9,189.2z"/>
	<path d="M194.4,55.8c-3.3,0-6.4,0-9.8,0c0-18.6,0-37,0-55.7c3.3,0,6.4,0,9.8,0C194.4,18.7,194.4,37.1,194.4,55.8z"/>
	<path d="M225.7,0c3.2,0,6.2,0,9.6,0c0,18.5,0,36.9,0,55.7c-3,0-6.1,0-9.6,0C225.7,37.4,225.7,19,225.7,0z"/>
	<path d="M71.5,301.7c-3.4,0-6.4,0-9.7,0c0-18.6,0-37,0-55.7c3.2,0,6.3,0,9.7,0C71.5,264.5,71.5,282.9,71.5,301.7z"/>
	<path d="M112.5,301.7c-3.4,0-6.4,0-9.7,0c0-18.6,0-37,0-55.7c3.2,0,6.3,0,9.7,0C112.5,264.5,112.5,282.9,112.5,301.7z"/>
	<path d="M153.3,301.7c-3.3,0-6.2,0-9.6,0c0-18.5,0-36.8,0-55.5c3.1,0,6.1,0,9.6,0C153.3,264.5,153.3,282.9,153.3,301.7z"/>
	<path d="M266.6,0c3.3,0,6.3,0,9.6,0c0,18.5,0,36.8,0,55.5c-3.1,0-6.2,0-9.6,0C266.6,37.2,266.6,18.9,266.6,0z"/>
	<path d="M205.2,0c3.3,0,6.2,0,9.5,0c0,18.6,0,36.9,0,55.7c-3.1,0-6.1,0-9.5,0C205.2,37.3,205.2,18.9,205.2,0z"/>
	<path d="M246.2,0c3.3,0,6.3,0,9.5,0c0,18.6,0,36.9,0,55.7c-3.1,0-6.1,0-9.5,0C246.2,37.3,246.2,18.9,246.2,0z"/>
	<path d="M82.3,245.9c3.2,0,6.1,0,9.4,0c0,18.5,0,36.9,0,55.6c-2.9,0-6,0-9.4,0C82.3,283.3,82.3,264.9,82.3,245.9z"/>
	<path d="M132.9,301.7c-3.5,0-6.4,0-9.6,0c0-18.6,0-37,0-55.7c3.2,0,6.3,0,9.6,0C132.9,264.6,132.9,282.9,132.9,301.7z"/>
	<path d="M174.4,173.7c-3.9,0-6.8,0-10.2,0c0-4.9,0-9.7,0-15c-5.2,0-9.9,0-15,0c0-3.6,0-6.7,0-10.3c4.8,0,9.5,0,14.7,0
		c0-5.3,0-10,0-15.1c3.5,0,6.6,0,10.2,0c0,4.7,0,9.5,0,14.9c5.4,0,10.3,0,15.4,0c0,3.7,0,6.6,0,10.2c-4.9,0-9.8,0-15.2,0
		C174.4,163.8,174.4,168.6,174.4,173.7z"/>
	<path d="M297,133.2c0,5,0,9.7,0,15.1c5.2,0,9.9,0,15,0c0,3.6,0,6.7,0,10.3c-4.9,0-9.7,0-14.9,0c0,5.3,0,10,0,15.1
		c-3.5,0-6.6,0-10.2,0c0-4.8,0-9.5,0-14.8c-5.3,0-10,0-15.2,0c0-3.6,0-6.6,0-10.4c4.8,0,9.7,0,15.1,0c0-5.5,0-10.2,0-15.2
		C290.3,133.2,293.3,133.2,297,133.2z"/>
	<path d="M40.9,133.1c3.8,0,6.7,0,10.2,0c0,4.9,0,9.6,0,14.9c5.2,0,10,0,15.2,0c0,3.6,0,6.7,0,10.4c-4.8,0-9.6,0-15,0
		c0,5.4,0,10.2,0,15.2c-3.6,0-6.6,0-10.2,0c0-4.9,0-9.7,0-14.9c-5.2,0-9.9,0-15,0c0-3.6,0-6.7,0-10.3c4.8,0,9.6,0,14.8,0
		C40.9,143.1,40.9,138.3,40.9,133.1z"/>
</g>
</svg>
