<?xml version="1.0" encoding="utf-8"?>
<!-- Generator: Adobe Illustrator 21.0.2, SVG Export Plug-In . SVG Version: 6.00 Build 0)  -->
<svg version="1.1" id="Layer_1" xmlns="http://www.w3.org/2000/svg" xmlns:xlink="http://www.w3.org/1999/xlink" x="0px" y="0px"
	 viewBox="0 0 351.9 232.8" style="enable-background:new 0 0 351.9 232.8;" xml:space="preserve">
<g>
	<path d="M200.4,56.3c-7.8,0-15.5,0-23.1,0c-48,0-96,0-144,0c-1.5,0-3.4,0.5-4.4-0.2c-1.8-1.2-4.4-3.2-4.4-4.9c0-1.6,2.5-4,4.4-4.8
		c2-0.8,4.6-0.3,6.9-0.3c80.3,0,160.6,0,241-0.1c16.2,0,32.3-1.6,47.8-6.8c4.4-1.5,8.7-3.4,12.6-5.8c5.6-3.5,5.9-7.6,0-10.5
		c-7.5-3.7-15.5-7.1-23.7-8.8c-28.4-6-57-5.9-85,2.3c-6.4,1.9-12.2,6.3-18,10c-2.6,1.6-5.2,2.7-7,0.2c-1.2-1.7-1.6-5.9-0.5-6.9
		c4.6-4,9.5-7.9,14.9-10.4c12.2-5.6,25.5-7.5,38.8-8.6C281-1,305.1-0.4,328.4,7.5c6,2,12.1,5.1,17,9c8.8,6.9,8.4,16.6-0.3,23.8
		c-8.4,6.9-18.4,10.2-28.8,11.8c-13.1,2-26.4,3.6-39.7,4c-22.3,0.6-44.6,0.2-67,0.2c-0.5,5,2.3,8.1,6.2,9.4
		c10.2,3.4,20.4,7.3,31,8.9c25.1,3.8,50.2,3.3,74.8-3.4c5.5-1.5,10.9-4.1,16-6.9c4.7-2.6,4.7-4.6,0.9-8.5c-2.5-2.6-3.1-5.2-0.6-7.9
		c2.4-2.5,5.1-1.7,7.5,0.4c7.9,6.4,8.3,15.5,0.5,22.3c-7.9,7-17.7,9.9-27.7,11.9c-31.5,6.5-62.9,6.6-93.9-2.4
		c-6.7-1.9-13.1-5.7-19-9.5C200.9,67.6,198.7,62.6,200.4,56.3z"/>
	<path d="M200.7,199.6c-2.6,0-4.7,0-6.8,0c-61.5,0-123,0-184.5,0c-7.1,0-9.9-1.4-9.4-5.2c0.7-5.7,5.3-5,9.3-5
		c65.8,0,131.6,0,197.5,0.1c1.9,0,4,0.3,5.7,1.1c5.5,2.7,5.9,6.3,1.2,10.2c-4.9,4.2-5.2,7,0.8,9.5c9.1,3.9,18.6,7.5,28.2,9.2
		c27,4.7,54.1,4.3,80.7-3.3c5.2-1.5,10.1-4.1,14.9-6.7c3.3-1.8,4.3-4.6,0.8-7.6c-2.8-2.4-4-5.3-1.2-8.2c3-3.2,6-1.5,8.7,1
		c7.1,6.7,6.9,15.2-0.7,21.7c-7.1,6.2-15.9,9.1-24.8,11.1c-31.9,7.2-63.8,7.1-95.4-1.3c-5.1-1.4-10.1-3.5-14.7-6
		C203.1,216,197.7,210,200.7,199.6z"/>
	<path d="M272.2,113.4c21.6-0.6,39.4-1.7,56.3-8.1c3.5-1.3,6.9-3.2,10.1-5.3c3.1-2,3.7-4.6,0.6-7.3c-2.8-2.4-4.1-5.2-1.3-8.2
		c3-3.2,6-1.6,8.7,1c7.1,6.7,7.4,15.9-0.7,21.4c-7,4.8-15.1,8.8-23.3,10.8c-32.2,7.9-64.7,7.9-96.8-0.9c-7.3-2-14.5-5.9-20.7-10.5
		c-7.4-5.5-7.1-15.4-0.1-20.6c1.6-1.2,5.2-1.1,6.9,0c1.1,0.7,1.4,4.7,0.5,6.4c-2.6,5.1-2.7,6.2,2.4,9.3c9.6,5.8,20.4,8.1,31.3,9.6
		C255.9,112.4,265.9,112.9,272.2,113.4z"/>
	<path d="M271.1,186.3c21.6-0.5,38.2-1.5,54.2-6.9c4.7-1.6,9.1-3.9,13.4-6.4c3.2-1.8,3.7-4.7,0.5-7.3c-3-2.5-4.1-5.5-1-8.5
		c2.9-2.8,5.8-1.2,8.3,1.2c7.3,6.9,7.1,15.3-0.8,22c-7.6,6.4-16.8,9.3-26.3,11.3c-32.1,6.8-64.2,6.9-95.8-2.5
		c-6.8-2-13.4-5.9-19.1-10.3c-6.5-5.1-6.4-14.5-0.5-19.2c1.5-1.2,5.1-1.5,6.5-0.5c1.3,1,2.2,5,1.2,6.3c-3.3,4.6-0.8,7.3,2.7,8.7
		c8.9,3.5,18,7.2,27.3,9C253,185.2,264.5,185.6,271.1,186.3z"/>
	<path d="M275.7,160.7c-18.3-1.1-36.5-2.2-53.7-8.6c-6.5-2.4-12.8-6.3-18.3-10.7c-4.9-3.9-5.4-11.1-1.9-15.3
		c1.3-1.5,4.6-2.9,6.2-2.3c1.5,0.6,3.4,4.3,2.8,5.8c-1.7,4.7,0.9,7,4.1,8.2c8.8,3.3,17.7,7.1,26.9,8.7c26.3,4.7,52.8,4.4,78.8-2.4
		c6-1.6,11.9-4.3,17.4-7.3c4.4-2.4,4.4-4.6,0.8-8.2c-2.5-2.5-3.4-5.1-0.9-7.9c2.6-2.8,5.3-1.8,7.9,0.4c8.2,6.9,7.9,16.4-1,23.3
		c-8.8,6.8-19.3,9.9-30,11.6C301.9,158.2,288.7,159.3,275.7,160.7z"/>
</g>
</svg>
